{
    "asset" : {
        "generator" : "Khronos glTF Blender I/O v3.3.32",
        "version" : "2.0"
    },
    "scene" : 0,
    "scenes" : [
        {
            "name" : "Scene",
            "nodes" : [
                0
            ]
        }
    ],
    "nodes" : [
        {
            "mesh" : 0,
            "name" : "Plane",
            "scale" : [
                100,
                1,
                100
            ]
        }
    ],
    "meshes" : [
        {
            "name" : "Plane",
            "primitives" : [
                {
                    "attributes" : {
                        "POSITION" : 0,
                        "NORMAL" : 1,
                        "TEXCOORD_0" : 2
                    },
                    "indices" : 3
                }
            ]
        }
    ],
    "accessors" : [
        {
            "bufferView" : 0,
            "componentType" : 5126,
            "count" : 5802,
            "max" : [
                1,
                15.39007568359375,
                1
            ],
            "min" : [
                -1.001854419708252,
                -21.469757080078125,
                -1.0039608478546143
            ],
            "type" : "VEC3"
        },
        {
            "bufferView" : 1,
            "componentType" : 5126,
            "count" : 5802,
            "type" : "VEC3"
        },
        {
            "bufferView" : 2,
            "componentType" : 5126,
            "count" : 5802,
            "type" : "VEC2"
        },
        {
            "bufferView" : 3,
            "componentType" : 5123,
            "count" : 10668,
            "type" : "SCALAR"
        }
    ],
    "bufferViews" : [
        {
            "buffer" : 0,
            "byteLength" : 69624,
            "byteOffset" : 0,
            "target" : 34962
        },
        {
            "buffer" : 0,
            "byteLength" : 69624,
            "byteOffset" : 69624,
            "target" : 34962
        },
        {
            "buffer" : 0,
            "byteLength" : 46416,
            "byteOffset" : 139248,
            "target" : 34962
        },
        {
            "buffer" : 0,
            "byteLength" : 21336,
            "byteOffset" : 185664,
            "target" : 34963
        }
    ],
    "buffers" : [
        {
            "byteLength" : 207000,
            "uri" : "data:application/octet-stream;base64,"
        }
    ]
}
